<?xml version="1.0" encoding="UTF-8"?>
<mxfile host="Electron" modified="2024-01-07T12:00:00.000Z" agent="5.0" version="14.6.13" type="device">
  <diagram id="state-diagram" name="State Diagram">
    <mxGraphModel dx="1422" dy="798" grid="1" gridSize="10" guides="1" tooltips="1" connect="1" arrows="1" fold="1" page="1" pageScale="1" pageWidth="827" pageHeight="1169">
      <root>
        <mxCell id="0"/>
        <mxCell id="1" parent="0"/>
        <!-- Initial State -->
        <mxCell id="2" value="" style="ellipse;fillColor=#000000;strokeColor=none;" vertex="1" parent="1">
          <mxGeometry x="380" y="40" width="30" height="30" as="geometry"/>
        </mxCell>
        <!-- States -->
        <mxCell id="3" value="System Initialization" style="swimlane;fontStyle=1;align=center;verticalAlign=top;childLayout=stackLayout;horizontal=1;startSize=26;horizontalStack=0;resizeParent=1;resizeParentMax=0;resizeLast=0;collapsible=1;marginBottom=0;" vertex="1" parent="1">
          <mxGeometry x="320" y="120" width="160" height="100" as="geometry"/>
        </mxCell>
        <mxCell id="4" value="entry / Load Configuration&#xa;do / Initialize Components&#xa;exit / Verify System Status" style="text;strokeColor=none;fillColor=none;align=left;verticalAlign=top;spacingLeft=4;spacingRight=4;overflow=hidden;rotatable=0;points=[[0,0.5],[1,0.5]];portConstraint=eastwest;" vertex="1" parent="3">
          <mxGeometry y="26" width="160" height="74" as="geometry"/>
        </mxCell>
        <mxCell id="5" value="Camera Setup" style="swimlane;fontStyle=1;align=center;verticalAlign=top;childLayout=stackLayout;horizontal=1;startSize=26;horizontalStack=0;resizeParent=1;resizeParentMax=0;resizeLast=0;collapsible=1;marginBottom=0;" vertex="1" parent="1">
          <mxGeometry x="320" y="280" width="160" height="100" as="geometry"/>
        </mxCell>
        <mxCell id="6" value="entry / Access Camera&#xa;do / Configure Settings&#xa;exit / Start Video Stream" style="text;strokeColor=none;fillColor=none;align=left;verticalAlign=top;spacingLeft=4;spacingRight=4;overflow=hidden;rotatable=0;points=[[0,0.5],[1,0.5]];portConstraint=eastwest;" vertex="1" parent="5">
          <mxGeometry y="26" width="160" height="74" as="geometry"/>
        </mxCell>
        <mxCell id="7" value="Marker Detection" style="swimlane;fontStyle=1;align=center;verticalAlign=top;childLayout=stackLayout;horizontal=1;startSize=26;horizontalStack=0;resizeParent=1;resizeParentMax=0;resizeLast=0;collapsible=1;marginBottom=0;" vertex="1" parent="1">
          <mxGeometry x="320" y="440" width="160" height="100" as="geometry"/>
        </mxCell>
        <mxCell id="8" value="entry / Process Frame&#xa;do / Detect Markers&#xa;exit / Calculate Positions" style="text;strokeColor=none;fillColor=none;align=left;verticalAlign=top;spacingLeft=4;spacingRight=4;overflow=hidden;rotatable=0;points=[[0,0.5],[1,0.5]];portConstraint=eastwest;" vertex="1" parent="7">
          <mxGeometry y="26" width="160" height="74" as="geometry"/>
        </mxCell>
        <mxCell id="9" value="AR Rendering" style="swimlane;fontStyle=1;align=center;verticalAlign=top;childLayout=stackLayout;horizontal=1;startSize=26;horizontalStack=0;resizeParent=1;resizeParentMax=0;resizeLast=0;collapsible=1;marginBottom=0;" vertex="1" parent="1">
          <mxGeometry x="320" y="600" width="160" height="100" as="geometry"/>
        </mxCell>
        <mxCell id="10" value="entry / Load 3D Models&#xa;do / Update Scene&#xa;exit / Render Frame" style="text;strokeColor=none;fillColor=none;align=left;verticalAlign=top;spacingLeft=4;spacingRight=4;overflow=hidden;rotatable=0;points=[[0,0.5],[1,0.5]];portConstraint=eastwest;" vertex="1" parent="9">
          <mxGeometry y="26" width="160" height="74" as="geometry"/>
        </mxCell>
        <!-- Error State -->
        <mxCell id="11" value="Error Handling" style="swimlane;fontStyle=1;align=center;verticalAlign=top;childLayout=stackLayout;horizontal=1;startSize=26;horizontalStack=0;resizeParent=1;resizeParentMax=0;resizeLast=0;collapsible=1;marginBottom=0;fillColor=#f8cecc;strokeColor=#b85450;" vertex="1" parent="1">
          <mxGeometry x="600" y="280" width="160" height="100" as="geometry"/>
        </mxCell>
        <mxCell id="12" value="entry / Log Error&#xa;do / Handle Exception&#xa;exit / Attempt Recovery" style="text;strokeColor=none;fillColor=none;align=left;verticalAlign=top;spacingLeft=4;spacingRight=4;overflow=hidden;rotatable=0;points=[[0,0.5],[1,0.5]];portConstraint=eastwest;" vertex="1" parent="11">
          <mxGeometry y="26" width="160" height="74" as="geometry"/>
        </mxCell>
        <!-- Final State -->
        <mxCell id="13" value="" style="ellipse;html=1;shape=endState;fillColor=#000000;strokeColor=#000000;" vertex="1" parent="1">
          <mxGeometry x="385" y="760" width="30" height="30" as="geometry"/>
        </mxCell>
        <!-- Transitions -->
        <mxCell id="14" value="" style="endArrow=classic;html=1;rounded=0;exitX=0.5;exitY=1;exitDx=0;exitDy=0;entryX=0.5;entryY=0;entryDx=0;entryDy=0;" edge="1" parent="1" source="2" target="3">
          <mxGeometry width="50" height="50" relative="1" as="geometry"/>
        </mxCell>
        <mxCell id="15" value="System Ready" style="endArrow=classic;html=1;rounded=0;exitX=0.5;exitY=1;exitDx=0;exitDy=0;entryX=0.5;entryY=0;entryDx=0;entryDy=0;" edge="1" parent="1" source="4" target="5">
          <mxGeometry relative="1" as="geometry"/>
        </mxCell>
        <mxCell id="16" value="Camera Ready" style="endArrow=classic;html=1;rounded=0;exitX=0.5;exitY=1;exitDx=0;exitDy=0;entryX=0.5;entryY=0;entryDx=0;entryDy=0;" edge="1" parent="1" source="6" target="7">
          <mxGeometry relative="1" as="geometry"/>
        </mxCell>
        <mxCell id="17" value="Markers Found" style="endArrow=classic;html=1;rounded=0;exitX=0.5;exitY=1;exitDx=0;exitDy=0;entryX=0.5;entryY=0;entryDx=0;entryDy=0;" edge="1" parent="1" source="8" target="9">
          <mxGeometry relative="1" as="geometry"/>
        </mxCell>
        <mxCell id="18" value="Error" style="endArrow=classic;html=1;rounded=0;exitX=1;exitY=0.5;exitDx=0;exitDy=0;entryX=0;entryY=0.5;entryDx=0;entryDy=0;" edge="1" parent="1" source="6" target="11">
          <mxGeometry relative="1" as="geometry"/>
        </mxCell>
        <mxCell id="19" value="Recovery&#xa;Success" style="endArrow=classic;html=1;rounded=0;exitX=0;exitY=0.25;exitDx=0;exitDy=0;entryX=1;entryY=0.25;entryDx=0;entryDy=0;" edge="1" parent="1" source="11" target="3">
          <mxGeometry relative="1" as="geometry">
            <Array as="points">
              <mxPoint x="540" y="305"/>
              <mxPoint x="540" y="145"/>
            </Array>
          </mxGeometry>
        </mxCell>
        <mxCell id="20" value="Shutdown" style="endArrow=classic;html=1;rounded=0;exitX=0.5;exitY=1;exitDx=0;exitDy=0;entryX=0.5;entryY=0;entryDx=0;entryDy=0;" edge="1" parent="1" source="10" target="13">
          <mxGeometry relative="1" as="geometry"/>
        </mxCell>
      </root>
    </mxGraphModel>
  </diagram>
</mxfile>
